<?xml version="1.0" encoding="UTF-8" standalone="no"?>
<!DOCTYPE svg PUBLIC "-//W3C//DTD SVG 1.1//EN" "http://www.w3.org/Graphics/SVG/1.1/DTD/svg11.dtd">
<svg role="img" aria-label="autocontext logo" width="1536" height="200" viewBox="0 0 1536 200" version="1.1" xmlns="http://www.w3.org/2000/svg" xmlns:xlink="http://www.w3.org/1999/xlink" xml:space="preserve" xmlns:serif="http://www.serif.com/" style="fill-rule:evenodd;clip-rule:evenodd;">
    <g transform="matrix(1,0,0,1,0,-4.929021)">
        <g fill="#f8fafc" transform="matrix(0.982774,0,0,0.982774,-215.640281,-155.734)">
            <g transform="matrix(251.288344,0,0,251.288344,476.799257,339.85316)">
                <path d="M0.202,0.008C0.225,0.008 0.246,0.005 0.266,-0.002C0.285,-0.009 0.302,-0.019 0.318,-0.032C0.333,-0.044 0.346,-0.059 0.355,-0.077L0.359,-0.077L0.359,-0L0.511,-0L0.511,-0.36C0.511,-0.396 0.501,-0.427 0.483,-0.453C0.464,-0.48 0.437,-0.5 0.403,-0.515C0.369,-0.53 0.329,-0.537 0.284,-0.537C0.236,-0.537 0.196,-0.53 0.162,-0.515C0.128,-0.501 0.101,-0.481 0.082,-0.456C0.063,-0.43 0.052,-0.401 0.049,-0.368L0.049,-0.362L0.187,-0.362L0.188,-0.367C0.192,-0.383 0.201,-0.396 0.216,-0.406C0.231,-0.417 0.251,-0.422 0.277,-0.422C0.303,-0.422 0.324,-0.416 0.338,-0.403C0.352,-0.39 0.359,-0.373 0.359,-0.351L0.359,-0.191C0.359,-0.174 0.354,-0.159 0.345,-0.145C0.336,-0.131 0.323,-0.121 0.307,-0.113C0.291,-0.105 0.273,-0.101 0.253,-0.101C0.229,-0.101 0.21,-0.106 0.196,-0.117C0.182,-0.127 0.175,-0.141 0.175,-0.16L0.175,-0.16C0.175,-0.178 0.182,-0.192 0.195,-0.203C0.209,-0.214 0.229,-0.22 0.255,-0.221L0.439,-0.233L0.439,-0.326L0.232,-0.313C0.188,-0.31 0.15,-0.302 0.12,-0.289C0.089,-0.275 0.065,-0.257 0.049,-0.235C0.033,-0.212 0.025,-0.184 0.025,-0.152L0.025,-0.151C0.025,-0.12 0.032,-0.093 0.047,-0.069C0.062,-0.045 0.083,-0.026 0.109,-0.012C0.136,0.001 0.167,0.008 0.202,0.008Z" style="fill-rule:nonzero;"/>
            </g>
            <g transform="matrix(251.288344,0,0,251.288344,603.63017,339.85316)">
                <path d="M0.224,0.011C0.25,0.011 0.274,0.007 0.295,-0.001C0.316,-0.009 0.333,-0.02 0.348,-0.035C0.363,-0.05 0.375,-0.068 0.384,-0.089L0.387,-0.089L0.387,-0L0.539,-0L0.539,-0.526L0.387,-0.526L0.387,-0.225C0.387,-0.209 0.385,-0.194 0.38,-0.18C0.376,-0.167 0.369,-0.155 0.36,-0.145C0.351,-0.135 0.341,-0.128 0.329,-0.122C0.316,-0.117 0.303,-0.114 0.287,-0.114C0.257,-0.114 0.233,-0.124 0.218,-0.142C0.202,-0.16 0.195,-0.186 0.195,-0.219L0.195,-0.526L0.042,-0.526L0.042,-0.187C0.042,-0.146 0.05,-0.11 0.064,-0.081C0.078,-0.051 0.098,-0.029 0.125,-0.013C0.152,0.003 0.185,0.011 0.224,0.011Z" style="fill-rule:nonzero;"/>
            </g>
            <g transform="matrix(251.288344,0,0,251.288344,737.864745,339.85316)">
                <path d="M0.26,0.011C0.276,0.011 0.29,0.01 0.302,0.009C0.314,0.008 0.324,0.007 0.333,0.005L0.333,-0.105C0.328,-0.104 0.324,-0.104 0.319,-0.103C0.314,-0.103 0.308,-0.103 0.302,-0.103C0.28,-0.103 0.264,-0.107 0.253,-0.117C0.243,-0.127 0.237,-0.143 0.237,-0.167L0.237,-0.412L0.333,-0.412L0.333,-0.526L0.237,-0.526L0.237,-0.652L0.084,-0.652L0.084,-0.526L0.011,-0.526L0.011,-0.412L0.084,-0.412L0.084,-0.149C0.084,-0.092 0.098,-0.051 0.127,-0.026C0.156,-0.001 0.2,0.011 0.26,0.011Z" style="fill-rule:nonzero;"/>
            </g>
            <g transform="matrix(251.288344,0,0,251.288344,815.372302,339.85316)">
                <path d="M0.29,0.011C0.344,0.011 0.39,0 0.43,-0.022C0.469,-0.043 0.499,-0.075 0.521,-0.115C0.542,-0.156 0.553,-0.205 0.553,-0.263L0.553,-0.264C0.553,-0.321 0.542,-0.37 0.521,-0.41C0.499,-0.451 0.468,-0.482 0.429,-0.504C0.389,-0.526 0.343,-0.537 0.29,-0.537C0.237,-0.537 0.19,-0.526 0.151,-0.504C0.112,-0.482 0.081,-0.451 0.059,-0.41C0.037,-0.369 0.027,-0.32 0.027,-0.264L0.027,-0.263C0.027,-0.206 0.037,-0.157 0.059,-0.116C0.08,-0.075 0.11,-0.044 0.15,-0.022C0.189,0 0.236,0.011 0.29,0.011ZM0.29,-0.107C0.268,-0.107 0.249,-0.113 0.232,-0.125C0.216,-0.137 0.203,-0.155 0.195,-0.178C0.186,-0.202 0.181,-0.23 0.181,-0.263L0.181,-0.264C0.181,-0.297 0.186,-0.325 0.195,-0.348C0.204,-0.371 0.216,-0.388 0.233,-0.401C0.249,-0.413 0.268,-0.419 0.29,-0.419C0.312,-0.419 0.331,-0.413 0.347,-0.401C0.363,-0.389 0.376,-0.371 0.385,-0.348C0.394,-0.325 0.398,-0.297 0.398,-0.264L0.398,-0.263C0.398,-0.23 0.394,-0.202 0.385,-0.178C0.377,-0.155 0.364,-0.137 0.348,-0.125C0.332,-0.113 0.312,-0.107 0.29,-0.107Z" style="fill-rule:nonzero;"/>
            </g>
            <g transform="matrix(251.288344,0,0,251.288344,948.51136,339.85316)">
                <path d="M0.289,0.011C0.337,0.011 0.379,0.002 0.414,-0.016C0.449,-0.034 0.477,-0.059 0.497,-0.09C0.517,-0.121 0.528,-0.156 0.53,-0.195L0.53,-0.198L0.389,-0.198L0.388,-0.194C0.384,-0.167 0.373,-0.146 0.357,-0.131C0.34,-0.115 0.318,-0.107 0.29,-0.107C0.268,-0.107 0.248,-0.113 0.232,-0.125C0.216,-0.137 0.203,-0.155 0.194,-0.178C0.186,-0.202 0.181,-0.23 0.181,-0.263L0.181,-0.263C0.181,-0.296 0.186,-0.324 0.194,-0.347C0.203,-0.37 0.216,-0.388 0.232,-0.4C0.248,-0.413 0.267,-0.419 0.29,-0.419C0.318,-0.419 0.34,-0.411 0.357,-0.394C0.374,-0.378 0.384,-0.357 0.388,-0.332L0.389,-0.328L0.529,-0.328L0.529,-0.331C0.528,-0.371 0.517,-0.406 0.497,-0.437C0.477,-0.468 0.449,-0.492 0.413,-0.51C0.378,-0.528 0.336,-0.537 0.287,-0.537C0.234,-0.537 0.188,-0.526 0.149,-0.504C0.11,-0.482 0.08,-0.45 0.059,-0.41C0.037,-0.369 0.027,-0.32 0.027,-0.264L0.027,-0.264C0.027,-0.207 0.037,-0.158 0.058,-0.117C0.08,-0.076 0.11,-0.044 0.149,-0.022C0.188,-0 0.235,0.011 0.289,0.011Z" style="fill-rule:nonzero;"/>
            </g>
            <g transform="matrix(251.288344,0,0,251.288344,1074.667127,339.85316)">
                <path d="M0.29,0.011C0.344,0.011 0.39,0 0.43,-0.022C0.469,-0.043 0.499,-0.075 0.521,-0.115C0.542,-0.156 0.553,-0.205 0.553,-0.263L0.553,-0.264C0.553,-0.321 0.542,-0.37 0.521,-0.41C0.499,-0.451 0.468,-0.482 0.429,-0.504C0.389,-0.526 0.343,-0.537 0.29,-0.537C0.237,-0.537 0.19,-0.526 0.151,-0.504C0.112,-0.482 0.081,-0.451 0.059,-0.41C0.037,-0.369 0.027,-0.32 0.027,-0.264L0.027,-0.263C0.027,-0.206 0.037,-0.157 0.059,-0.116C0.08,-0.075 0.11,-0.044 0.15,-0.022C0.189,0 0.236,0.011 0.29,0.011ZM0.29,-0.107C0.268,-0.107 0.249,-0.113 0.232,-0.125C0.216,-0.137 0.203,-0.155 0.195,-0.178C0.186,-0.202 0.181,-0.23 0.181,-0.263L0.181,-0.264C0.181,-0.297 0.186,-0.325 0.195,-0.348C0.204,-0.371 0.216,-0.388 0.233,-0.401C0.249,-0.413 0.268,-0.419 0.29,-0.419C0.312,-0.419 0.331,-0.413 0.347,-0.401C0.363,-0.389 0.376,-0.371 0.385,-0.348C0.394,-0.325 0.398,-0.297 0.398,-0.264L0.398,-0.263C0.398,-0.23 0.394,-0.202 0.385,-0.178C0.377,-0.155 0.364,-0.137 0.348,-0.125C0.332,-0.113 0.312,-0.107 0.29,-0.107Z" style="fill-rule:nonzero;"/>
            </g>
            <g transform="matrix(251.288344,0,0,251.288344,1207.806185,339.85316)">
                <path d="M0.045,-0L0.197,-0L0.197,-0.301C0.197,-0.323 0.201,-0.342 0.209,-0.359C0.218,-0.375 0.229,-0.388 0.244,-0.398C0.259,-0.407 0.276,-0.412 0.297,-0.412C0.328,-0.412 0.351,-0.402 0.366,-0.384C0.382,-0.366 0.389,-0.34 0.389,-0.307L0.389,-0L0.542,-0L0.542,-0.339C0.542,-0.401 0.526,-0.45 0.494,-0.485C0.463,-0.519 0.418,-0.537 0.36,-0.537C0.321,-0.537 0.287,-0.528 0.261,-0.511C0.234,-0.493 0.214,-0.469 0.2,-0.438L0.197,-0.438L0.197,-0.526L0.045,-0.526L0.045,-0Z" style="fill-rule:nonzero;"/>
            </g>
            <g transform="matrix(251.288344,0,0,251.288344,1342.04076,339.85316)">
                <path d="M0.26,0.011C0.276,0.011 0.29,0.01 0.302,0.009C0.314,0.008 0.324,0.007 0.333,0.005L0.333,-0.105C0.328,-0.104 0.324,-0.104 0.319,-0.103C0.314,-0.103 0.308,-0.103 0.302,-0.103C0.28,-0.103 0.264,-0.107 0.253,-0.117C0.243,-0.127 0.237,-0.143 0.237,-0.167L0.237,-0.412L0.333,-0.412L0.333,-0.526L0.237,-0.526L0.237,-0.652L0.084,-0.652L0.084,-0.526L0.011,-0.526L0.011,-0.412L0.084,-0.412L0.084,-0.149C0.084,-0.092 0.098,-0.051 0.127,-0.026C0.156,-0.001 0.2,0.011 0.26,0.011Z" style="fill-rule:nonzero;"/>
            </g>
            <g transform="matrix(251.288344,0,0,251.288344,1419.548317,339.85316)">
                <path d="M0.288,0.011C0.327,0.011 0.361,0.006 0.389,-0.004C0.418,-0.014 0.442,-0.028 0.462,-0.044C0.481,-0.061 0.496,-0.079 0.508,-0.099C0.519,-0.119 0.526,-0.138 0.53,-0.157L0.532,-0.163L0.393,-0.163L0.392,-0.16C0.389,-0.151 0.383,-0.142 0.375,-0.133C0.366,-0.123 0.355,-0.116 0.341,-0.11C0.327,-0.104 0.31,-0.101 0.291,-0.101C0.267,-0.101 0.247,-0.106 0.23,-0.116C0.213,-0.127 0.2,-0.142 0.19,-0.162C0.181,-0.181 0.176,-0.205 0.176,-0.233L0.176,-0.292C0.176,-0.32 0.181,-0.345 0.19,-0.364C0.199,-0.384 0.212,-0.399 0.229,-0.41C0.245,-0.42 0.264,-0.425 0.285,-0.425C0.306,-0.425 0.325,-0.42 0.341,-0.41C0.357,-0.4 0.37,-0.385 0.379,-0.365C0.388,-0.346 0.392,-0.321 0.392,-0.292L0.392,-0.233L0.464,-0.321L0.101,-0.321L0.101,-0.227L0.536,-0.227L0.536,-0.273C0.536,-0.326 0.525,-0.373 0.505,-0.412C0.484,-0.452 0.455,-0.482 0.417,-0.504C0.379,-0.526 0.334,-0.537 0.282,-0.537C0.23,-0.537 0.185,-0.526 0.147,-0.503C0.109,-0.481 0.079,-0.449 0.058,-0.408C0.037,-0.367 0.027,-0.319 0.027,-0.263L0.027,-0.262C0.027,-0.206 0.037,-0.158 0.058,-0.117C0.079,-0.076 0.109,-0.044 0.148,-0.022C0.187,-0 0.234,0.011 0.288,0.011Z" style="fill-rule:nonzero;"/>
            </g>
            <g transform="matrix(251.288344,0,0,251.288344,1546.52188,339.85316)">
                <path d="M0.01,-0L0.169,-0L0.263,-0.179L0.266,-0.179L0.362,-0L0.527,-0L0.366,-0.266L0.528,-0.526L0.363,-0.526L0.275,-0.351L0.272,-0.351L0.182,-0.526L0.011,-0.526L0.172,-0.262L0.01,-0Z" style="fill-rule:nonzero;"/>
            </g>
            <g transform="matrix(251.288344,0,0,251.288344,1676.579411,339.85316)">
                <path d="M0.26,0.011C0.276,0.011 0.29,0.01 0.302,0.009C0.314,0.008 0.324,0.007 0.333,0.005L0.333,-0.105C0.328,-0.104 0.324,-0.104 0.319,-0.103C0.314,-0.103 0.308,-0.103 0.302,-0.103C0.28,-0.103 0.264,-0.107 0.253,-0.117C0.243,-0.127 0.237,-0.143 0.237,-0.167L0.237,-0.412L0.333,-0.412L0.333,-0.526L0.237,-0.526L0.237,-0.652L0.084,-0.652L0.084,-0.526L0.011,-0.526L0.011,-0.412L0.084,-0.412L0.084,-0.149C0.084,-0.092 0.098,-0.051 0.127,-0.026C0.156,-0.001 0.2,0.011 0.26,0.011Z" style="fill-rule:nonzero;"/>
            </g>
            <g transform="matrix(251.288344,0,0,251.288344,1778.175312,339.85316)">
            </g>
        </g>
        <g transform="matrix(0.086562,0,0,0.086562,102.122551,104.929021)">
            <g transform="matrix(1,0,0,1,-1066.666667,-1066.666667)">
                <clipPath id="_clip1">
                    <rect x="0" y="0" width="2133.333" height="2133.333"/>
                </clipPath>
                <g clip-path="url(#_clip1)">
                    <g transform="matrix(96.969697,0,0,96.969697,0,0)">
                        <circle cx="11" cy="11" r="5.28" style="fill:none;stroke:rgb(37,99,235);stroke-width:1.5px;"/>
                    </g>
                    <g transform="matrix(96.969697,0,0,96.969697,0,0)">
                        <path d="M11,0L11,3.72" style="fill:none;fill-rule:nonzero;stroke:rgb(37,99,235);stroke-width:1.5px;"/>
                    </g>
                    <g transform="matrix(96.969697,0,0,96.969697,0,0)">
                        <path d="M11,18.28L11,22" style="fill:none;fill-rule:nonzero;stroke:rgb(37,99,235);stroke-width:1.5px;"/>
                    </g>
                    <g transform="matrix(96.969697,0,0,96.969697,0,0)">
                        <path d="M0,11L3.72,11" style="fill:none;fill-rule:nonzero;stroke:rgb(37,99,235);stroke-width:1.5px;"/>
                    </g>
                    <g transform="matrix(96.969697,0,0,96.969697,0,0)">
                        <path d="M18.28,11L22,11" style="fill:none;fill-rule:nonzero;stroke:rgb(37,99,235);stroke-width:1.5px;"/>
                    </g>
                </g>
            </g>
        </g>
    </g>
</svg>
